<?xml version="1.0" encoding="UTF-8" standalone="no"?>
<svg
   width="270"
   height="270"
   version="1.1"
   id="logo_tdp"
   sodipodi:docname="icon.svg"
   inkscape:version="1.2.2 (732a01da63, 2022-12-09)"
   xmlns:inkscape="http://www.inkscape.org/namespaces/inkscape"
   xmlns:sodipodi="http://sodipodi.sourceforge.net/DTD/sodipodi-0.dtd"
   xmlns="http://www.w3.org/2000/svg"
   xmlns:svg="http://www.w3.org/2000/svg">
  <defs
     id="defs1133" />
  <sodipodi:namedview
     id="namedview1131"
     pagecolor="#ffffff"
     bordercolor="#000000"
     borderopacity="0.25"
     inkscape:showpageshadow="2"
     inkscape:pageopacity="0.0"
     inkscape:pagecheckerboard="0"
     inkscape:deskcolor="#d1d1d1"
     showgrid="false"
     inkscape:zoom="3.577091"
     inkscape:cx="252.8591"
     inkscape:cy="114.05916"
     inkscape:window-width="2880"
     inkscape:window-height="1694"
     inkscape:window-x="-11"
     inkscape:window-y="-11"
     inkscape:window-maximized="1"
     inkscape:current-layer="logo_tdp" />
  <path
     id="logo_icon"
     file="#000"
     d="M 62.799057,223.25014 C 32.251909,216.96776 10.095369,193.14512 10.000306,166.48109 9.8592089,126.93251 58.488853,83.293677 129.97132,58.822394 c 33.34007,-11.413637 75.04685,-17.5589 77.12475,-11.363915 0.4889,1.457624 -3.28615,6.750723 -8.389,11.76244 l -9.27793,9.112191 8.59172,-1.402395 c 15.65805,-2.555811 44.75975,-4.612731 51.9608,-3.672614 9.85841,1.287043 11.90964,4.457775 8.46216,13.08063 -6.89938,17.256708 -27.62428,33.732659 -48.26037,38.366129 -13.07922,2.9367 -67.5315,6.53074 -67.5315,4.45731 0,-0.60058 10.09527,-3.03429 22.43395,-5.40822 30.06076,-5.78363 47.62638,-11.28073 56.61491,-17.71747 8.86157,-6.345772 11.72342,-10.609362 10.0961,-15.041198 -0.99241,-2.702788 -4.29578,-3.264191 -19.20685,-3.264191 -31.64805,0 -85.46681,12.417444 -117.066408,27.010389 -6.107497,2.8205 -10.245369,4.23664 -9.195267,3.14701 3.876705,-4.02265 33.053475,-17.973906 52.505005,-25.105936 25.48161,-9.343029 35.96636,-14.685411 38.48914,-19.611709 1.90041,-3.711025 1.52507,-3.843095 -7.26427,-2.555972 -27.67271,4.052446 -72.197385,22.755842 -99.664823,41.866027 -37.205794,25.88557 -54.0418,58.94022 -42.286159,83.02174 8.028646,16.44672 19.1826,26.28823 39.877059,35.18481 10.993516,4.72616 9.330541,5.54803 -5.18528,2.56269 z"
     style="stroke-width:1.00096" />
  <g
     id="g1204"
     transform="matrix(1.0019157,0,0,1,-5.1440754,34.471688)">
    <path
       id="logo_21t"
       file="#000"
       d="M 110.96243,113.70777 H 96.37438 v 44.77598 H 86.26309 V 113.70777 H 71.75223 v -8.89333 h 39.2102 z" />
    <path
       id="logo_22d"
       file="#000"
       d="m 135.97044,104.81444 q 8.56758,0 14.12493,2.16533 5.63454,2.16533 8.72195,8.04267 3.16461,5.87733 3.16461,16.62665 0,14.69333 -6.71514,20.80266 -6.71513,6.032 -19.29635,6.032 h -17.36673 v -53.66931 z m -0.46311,44.93065 q 5.40298,0 8.87632,-1.624 3.55053,-1.624 5.32579,-5.568 1.85245,-4.02133 1.85245,-10.904 0,-7.19199 -1.85245,-11.21332 -1.85245,-4.02134 -5.32579,-5.49067 -3.47334,-1.54666 -8.87632,-1.54666 h -6.79232 v 36.34665 z" />
    <path
       id="logo_23p"
       file="#000"
       d="m 170.25633,104.81444 h 17.13516 q 7.87292,0 12.34967,1.856 4.47676,1.77867 6.32921,5.64533 Q 208,116.18243 208,122.67843 q 0,6.80533 -2.08401,10.82666 -2.084,4.02134 -6.56076,5.8 -4.47675,1.77867 -11.96374,1.77867 h -7.02387 v 17.39999 h -10.11129 z m 15.9002,28.07199 q 4.39957,0 6.8695,-0.85067 2.46994,-0.928 3.55053,-3.09333 1.0806,-2.16533 1.0806,-6.10933 0,-3.712 -1.0806,-5.8 -1.08059,-2.16533 -3.62771,-3.09333 -2.46994,-0.928 -6.79232,-0.928 h -5.78891 v 19.87466 z" />
  </g>
</svg>
