<svg width="66px" height="60px" xmlns="http://www.w3.org/2000/svg">
    <path fill="#168f78" d="m1.13234,1.19681l25.23528,0c9.45885,0.02724 16.22407,6.64455 16.3136,16.08004q0.12846,13.80681 0,27.63698c-0.06617,8.28331 -5.48847,14.70988 -13.30078,15.95938c-2.45229,0.38925 -2.47954,0.38925 -2.47954,-2.04358l0,-39.26007c0,-2.61189 0,-2.56908 -2.57297,-2.63136c-3.61226,-0.08174 -7.26735,0.08564 -10.82123,-0.42039c-6.74187,-0.96535 -12.35879,-7.51258 -12.50671,-14.09096a10.89909,10.89909 0 0 1 0.13235,-1.23004z"/>
    <path fill="#f08b01" d="m43.50018,1.19681l23.09031,0l-11.7006,19.37345l-11.38971,-19.37345z"/>
</svg>