<?xml version="1.0" encoding="UTF-8" standalone="no"?>
<svg
   width="400"
   height="200"
   version="1.1"
   id="logo_tdp"
   xmlns="http://www.w3.org/2000/svg"
   xmlns:svg="http://www.w3.org/2000/svg">
  <path
     id="logo_icon"
     file="#000"
     d="M 62.698102,188.25014 C 32.209362,181.96776 10.095187,158.14512 10.000305,131.48109 9.8594802,91.932513 58.39614,48.293677 129.74193,23.822394 163.01825,12.408757 204.64528,6.2634939 206.71921,12.458479 c 0.48797,1.457624 -3.27986,6.750723 -8.37296,11.76244 l -9.26019,9.112191 8.57529,-1.402395 c 15.62812,-2.555811 44.67417,-4.612731 51.86145,-3.672614 9.83956,1.287043 11.88687,4.457775 8.44598,13.08063 -6.88619,17.256708 -27.57146,33.732663 -48.16809,38.366131 -13.05421,2.936699 -67.40238,6.530738 -67.40238,4.457312 0,-0.600586 10.07597,-3.034291 22.39106,-5.408222 30.00328,-5.783631 47.53531,-11.280733 56.50666,-17.717472 8.84462,-6.345772 11.701,-10.609362 10.07679,-15.041198 -0.99051,-2.702788 -4.28756,-3.264191 -19.17012,-3.264191 -31.58754,0 -85.3034,12.417444 -116.842574,27.010393 -6.095819,2.820491 -10.225779,4.236633 -9.177685,3.147009 3.869293,-4.022657 32.990279,-17.973909 52.404609,-25.105939 25.43289,-9.343029 35.89759,-14.685411 38.41555,-19.611709 1.89678,-3.711025 1.52215,-3.843095 -7.25038,-2.555972 -27.6198,4.052446 -72.05934,22.755842 -99.474258,41.866028 -37.134655,25.885569 -53.93847,58.940219 -42.205306,83.021739 8.013295,16.44672 19.145922,26.28823 39.800812,35.18481 10.972496,4.72616 9.3127,5.54803 -5.175366,2.56269 z" />
  <path
     id="logo_11o"
     file="#000"
     d="m 70.769563,159.25708 q -8.181656,0 -13.35308,-2.39733 -5.171424,-2.47467 -7.872914,-8.50666 -2.70149,-6.032 -2.70149,-16.704 0,-10.59466 2.70149,-16.62665 2.70149,-6.10934 7.872914,-8.50667 5.24861,-2.47466 13.35308,-2.47466 8.10447,0 13.275894,2.47466 5.171424,2.39733 7.872909,8.50667 2.701495,6.03199 2.701495,16.62665 0,10.672 -2.701495,16.704 -2.701485,6.03199 -7.872909,8.50666 -5.094239,2.39733 -13.275894,2.39733 z m 0,-8.50666 q 5.480165,0 8.258841,-1.856 2.855861,-1.856 3.936457,-5.87733 1.080596,-4.02133 1.080596,-11.368 0,-7.26933 -1.080596,-11.29066 -1.080596,-4.09866 -3.936457,-6.03199 -2.855861,-1.93334 -8.258841,-1.93334 -5.402981,0 -8.336027,1.93334 -2.855861,1.93333 -3.936456,6.03199 -1.080597,4.09867 -1.080597,11.29066 0,7.34667 1.080597,11.368 1.080595,4.02133 3.936456,5.87733 2.855861,1.856 8.336027,1.856 z" />
  <path
     id="logo_12p"
     file="#000"
     d="m 128.19555,102.64911 q 6.56076,0 10.26566,2.62933 3.7049,2.552 5.09423,7.26933 1.46653,4.71733 1.46653,11.75466 0,10.05333 -3.7049,15.85332 -3.62772,5.8 -13.12152,5.8 -5.48017,0 -8.49041,-1.70133 -3.01022,-1.77867 -4.39956,-5.02667 v 21.42133 h -9.64818 v -57.22664 h 9.64818 v 5.87733 q 3.01023,-6.65066 12.88997,-6.65066 z m -2.62431,35.80531 q 4.01365,0 6.09765,-1.856 2.084,-1.856 2.70149,-4.872 0.69467,-3.01599 0.69467,-7.42399 0,-6.96 -1.92963,-10.59466 -1.85246,-3.63467 -7.56418,-3.63467 -6.09765,0 -8.4904,3.55733 -2.31556,3.48 -2.31556,10.672 0,6.96 2.39275,10.59466 2.39275,3.55733 8.41321,3.55733 z" />
  <path
     id="logo_13e"
     file="#000"
     d="m 190.17544,128.01443 q 0,3.17067 -0.38593,5.49067 l -27.32363,1.77866 q 0.15436,5.25867 2.93304,7.73333 2.85586,2.47467 9.0307,2.47467 3.62771,0 7.48698,-0.85067 3.85927,-0.85066 6.09765,-2.01066 v 7.88799 q -2.00682,1.16 -6.25202,2.01067 -4.16802,0.77333 -9.03069,0.77333 -6.63795,0 -11.03753,-1.93333 -4.32237,-2.01067 -6.63794,-6.728 -2.31556,-4.79466 -2.31556,-12.99199 0,-8.19733 2.31556,-12.91466 2.31557,-4.79467 6.63794,-6.728 4.39958,-2.01066 11.03753,-2.01066 9.95692,0 13.66182,4.79466 3.78208,4.79466 3.78208,13.22399 z m -8.95351,-1.00533 q 0,-4.56266 -1.69807,-7.03733 -1.69809,-2.552 -6.79232,-2.552 -5.63454,0 -7.87292,2.62933 -2.16119,2.62934 -2.39274,8.352 z" />
  <path
     id="logo_14n"
     file="#000"
     d="m 222.7477,110.38244 q 7.64136,0 10.72878,3.47999 3.1646,3.48 3.1646,10.44 v 28.61332 h -9.64818 v -25.90666 q 0,-4.63999 -1.46652,-6.57333 -1.46652,-2.01066 -5.71173,-2.01066 -4.01364,0 -6.48357,1.46933 -2.46994,1.46933 -3.7049,5.18133 v 27.83999 H 199.978 v -41.75998 h 9.64818 v 5.25866 q 1.69808,-3.09333 5.09424,-4.56266 3.47335,-1.46933 8.02728,-1.46933 z" />
  <path
     id="logo_21t"
     file="#000"
     d="m 292.96243,113.70777 h -14.58805 v 44.77598 h -10.11129 v -44.77598 h -14.51086 v -8.89333 h 39.2102 z" />
  <path
     id="logo_22d"
     file="#000"
     d="m 317.97044,104.81444 q 8.56758,0 14.12493,2.16533 5.63454,2.16533 8.72195,8.04267 3.16461,5.87733 3.16461,16.62665 0,14.69333 -6.71514,20.80266 -6.71513,6.032 -19.29635,6.032 h -17.36673 v -53.66931 z m -0.46311,44.93065 q 5.40298,0 8.87632,-1.624 3.55053,-1.624 5.32579,-5.568 1.85245,-4.02133 1.85245,-10.904 0,-7.19199 -1.85245,-11.21332 -1.85245,-4.02134 -5.32579,-5.49067 -3.47334,-1.54666 -8.87632,-1.54666 h -6.79232 v 36.34665 z" />
  <path
     id="logo_23p"
     file="#000"
     d="m 352.25633,104.81444 h 17.13516 q 7.87292,0 12.34967,1.856 4.47676,1.77867 6.32921,5.64533 Q 390,116.18243 390,122.67843 q 0,6.80533 -2.08401,10.82666 -2.084,4.02134 -6.56076,5.8 -4.47675,1.77867 -11.96374,1.77867 h -7.02387 v 17.39999 h -10.11129 z m 15.9002,28.07199 q 4.39957,0 6.8695,-0.85067 2.46994,-0.928 3.55053,-3.09333 1.0806,-2.16533 1.0806,-6.10933 0,-3.712 -1.0806,-5.8 -1.08059,-2.16533 -3.62771,-3.09333 -2.46994,-0.928 -6.79232,-0.928 h -5.78891 v 19.87466 z" />
</svg>
