<?xml version="1.0" encoding="UTF-8" standalone="no"?>
<svg
   width="400"
   height="200"
   version="1.1"
   id="logo_tdp"
   xmlns="http://www.w3.org/2000/svg"
   xmlns:svg="http://www.w3.org/2000/svg">
   <path
      id="logo_icon"
      fill="#000"
      d="M 60.687094,188.25014 C 31.361832,181.96776 10.091555,158.14512 10.000293,131.48109 9.8648425,91.932513 56.549299,48.293677 125.17247,23.822394 157.17893,12.408757 197.21744,6.2634939 199.21223,12.458479 c 0.46934,1.457624 -3.1547,6.750723 -8.05344,11.76244 l -8.90682,9.112191 8.24805,-1.402395 c 15.03174,-2.555811 42.96936,-4.612731 49.88237,-3.672614 9.46407,1.287043 11.43326,4.457775 8.12368,13.08063 -6.62341,17.256708 -26.51931,33.732663 -46.32996,38.366131 -12.55605,2.936699 -64.83024,6.530738 -64.83024,4.457312 0,-0.600586 9.69146,-3.034291 21.5366,-5.408222 28.85832,-5.783631 45.72132,-11.280733 54.35031,-17.717472 8.5071,-6.345772 11.25448,-10.609362 9.69225,-15.041198 -0.95271,-2.702788 -4.12394,-3.264191 -18.43857,-3.264191 -30.38213,0 -82.04814,12.417444 -112.383754,27.010393 -5.863197,2.820491 -9.835554,4.236633 -8.827456,3.147009 3.721637,-4.022657 31.73134,-17.973909 50.4048,-25.105939 24.46235,-9.343029 34.52771,-14.685411 36.94958,-19.611709 1.8244,-3.711025 1.46406,-3.843095 -6.9737,-2.555972 C 137.09013,29.667319 94.34644,48.370715 67.9777,67.480901 32.260137,93.36647 16.097571,126.42112 27.382987,150.50264 c 7.7075,16.44672 18.415296,26.28823 38.281977,35.18481 10.553775,4.72616 8.957318,5.54803 -4.97787,2.56269 z" />
   <path
      id="logo_11o"
      fill="#000"
      d="m 70.03231,158 q -6.849757,0 -11.179321,-2.17087 -4.329564,-2.24089 -6.591277,-7.70308 Q 50,142.66387 50,133 q 0,-9.59385 2.261712,-15.05601 2.261713,-5.53224 6.591277,-7.70309 Q 63.247173,108 70.03231,108 q 6.785137,0 11.114701,2.2409 4.329564,2.17086 6.591272,7.70309 Q 90,123.40615 90,132.99999 q 0,9.66387 -2.261717,15.12605 -2.261708,5.46219 -6.591272,7.70309 Q 76.882067,157.99999 70.03231,158 Z m 0,-7.70307 q 4.588045,0 6.914378,-1.68068 2.390954,-1.68067 3.295638,-5.32213 0.904685,-3.64145 0.904685,-10.29412 0,-6.58262 -0.904685,-10.22408 -0.904684,-3.71147 -3.295638,-5.46217 -2.390953,-1.75072 -6.914378,-1.75072 -4.523425,0 -6.978998,1.75072 -2.390954,1.7507 -3.295638,5.46217 -0.904685,3.7115 -0.904685,10.22408 0,6.65267 0.904685,10.29412 0.904684,3.64146 3.295638,5.32213 2.390953,1.68068 6.978998,1.68068 z" />
   <path
      id="logo_12p"
      fill="#000"
      d="m 122.90196,118 q 6.66667,0 10.43138,2.26666 3.7647,2.2 5.17646,6.26668 Q 140,130.6 140,136.66666 q 0,8.66668 -3.76471,13.66667 -3.68627,5 -13.33333,5 -5.56863,0 -8.62746,-1.46667 -3.05881,-1.53333 -4.47058,-4.33333 V 168 H 100 v -49.33334 h 9.80392 v 5.06667 Q 112.86274,118 122.90196,118 Z m -2.66667,30.86666 q 4.07844,0 6.19608,-1.6 2.11764,-1.6 2.7451,-4.2 0.70588,-2.6 0.70588,-6.4 0,-6 -1.96077,-9.13332 -1.88237,-3.13335 -7.68629,-3.13335 -6.19608,0 -8.62745,3.06667 -2.35294,3 -2.35294,9.2 0,6 2.43138,9.13334 2.43137,3.06666 8.54901,3.06666 z" />
   <path
      id="logo_13e"
      fill="#000"
      d="m 190,134.64285 q 0,2.92858 -0.41237,5.07144 l -29.19587,1.64285 q 0.16494,4.85715 3.13401,7.14286 3.05155,2.28572 9.64949,2.28572 3.87629,0 8,-0.78572 4.12371,-0.78571 6.51546,-1.85714 v 7.28571 Q 185.54639,156.5 181.01031,157.28572 176.55669,158 171.36083,158 164.26804,158 159.567,156.21429 154.94846,154.35714 152.47422,150 150,145.57143 150,138 q 0,-7.57143 2.47422,-11.92857 2.47424,-4.42858 7.09278,-6.21429 Q 164.26804,118 171.36083,118 q 10.63918,0 14.59794,4.42857 Q 190,126.85714 190,134.64285 Z m -9.56701,-0.92857 q 0,-4.21428 -1.81442,-6.5 -1.81445,-2.35714 -7.25774,-2.35714 -6.02062,0 -8.41238,2.42857 -2.30927,2.42858 -2.55669,7.71429 z" />
   <path
      id="logo_14n"
      fill="#000"
      d="m 224.8421,118 q 8.33685,0 11.70527,3.27272 Q 240,124.54545 240,131.09091 V 158 h -10.52632 v -24.36364 q 0,-4.36363 -1.59999,-6.18182 -1.6,-1.89091 -6.23159,-1.89091 -4.37895,0 -7.07368,1.38182 -2.69474,1.38182 -4.0421,4.87273 V 158 H 200 v -39.27273 h 10.52632 v 4.94545 q 1.85263,-2.90909 5.55789,-4.2909 Q 219.87369,118 224.8421,118 Z" />
   <path
      id="logo_21t"
      fill="#000"
      d="M 290,116.2853 H 275.11811 V 158 H 264.80315 V 116.2853 H 250 V 108 h 40 z" />
   <path
      id="logo_22d"
      fill="#000"
      d="m 316.01424,108 q 7.90035,0 13.0249,2.01729 5.19574,2.01729 8.0427,7.4928 2.91816,5.4755 2.91816,15.4899 0,13.68876 -6.19218,19.38041 Q 327.61566,158 316.01424,158 H 300 v -50 z m -0.42704,41.85879 q 4.9822,0 8.18504,-1.51296 3.27402,-1.51298 4.91103,-5.18733 1.70818,-3.74639 1.70818,-10.15851 0,-6.70028 -1.70818,-10.44667 -1.70818,-3.74641 -4.91103,-5.11528 -3.20284,-1.44092 -8.18504,-1.44092 h -6.26335 v 33.86167 z" />
   <path
      id="logo_23p"
      fill="#000"
      d="m 350,108 h 18.15951 q 8.34356,0 13.08793,1.72911 4.74439,1.65706 6.70758,5.25936 2.04498,3.6023 2.04498,9.65418 0,6.34006 -2.20859,10.08645 -2.20859,3.74641 -6.95297,5.40346 -4.74437,1.65707 -12.67893,1.65707 h -7.44376 V 158 H 350 Z m 16.85072,26.15274 q 4.66258,0 7.28016,-0.79251 2.61759,-0.86456 3.76278,-2.88184 1.1452,-2.01729 1.1452,-5.69164 0,-3.45822 -1.1452,-5.40347 -1.14519,-2.01729 -3.84457,-2.88183 -2.6176,-0.86456 -7.19837,-0.86456 h -6.13497 v 18.51585 z" />
</svg>
