<svg width="153px" height="60px" xmlns="http://www.w3.org/2000/svg">
    <path fill="#168f78" d="m1.13234,1.19681l25.23528,0c9.45885,0.02724 16.22407,6.64455 16.3136,16.08004q0.12846,13.80681 0,27.63698c-0.06617,8.28331 -5.48847,14.70988 -13.30078,15.95938c-2.45229,0.38925 -2.47954,0.38925 -2.47954,-2.04358l0,-39.26007c0,-2.61189 0,-2.56908 -2.57297,-2.63136c-3.61226,-0.08174 -7.26735,0.08564 -10.82123,-0.42039c-6.74187,-0.96535 -12.35879,-7.51258 -12.50671,-14.09096a10.89909,10.89909 0 0 1 0.13235,-1.23004z"/>
    <path fill="#f08b01" d="m43.50018,1.19681l23.09031,0l-11.7006,19.37345l-11.38971,-19.37345z"/>
    <path fill="#168F78" d="m112.023387,18.75081q0,9.172 -6.4,14.14q-6.4,4.962 -17.98,4.962l-15.01,0l0,-36.656l16.06,0q11.17,0 17.25,4.51q6.08,4.512 6.08,13.044zm-13.02,0.347q0,-5.04 -2.52,-7.473t-7.67,-2.433l-3.65,0l0,20.54l2.8,0q5.71,0 8.38,-2.623q2.66,-2.623 2.66,-8.01l0,-0.001zm55,-6.24q0,6.138 -4.58,9.487q-4.59,3.35 -13.03,3.35l-3.52,0l0,12.158l-12.54,0l0,-36.656l16.06,0q8.79,0 13.2,3.034q4.41,3.033 4.41,8.626l0,0.001zm-21.13,-3.666l0,8.43l2.28,0q2.83,0 4.49,-1.257q1.67,-1.256 1.67,-3.46q0,-3.713 -5.21,-3.713l-3.23,0z"/>
    <path fill="#F08B01" d="m45.473394,47.157194l107.89,0l0,13.24l-107.89,0l0,-13.24z"/>
    <path fill="#fff" d="m54.603394,51.487194q-0.83,0 -1.29,0.68q-0.46,0.67 -0.46,1.86q0,2.47 1.88,2.47q0.57,0 1.1,-0.15q0.53,-0.16 1.07,-0.38l0,1.95q-1.07,0.48 -2.42,0.48q-1.94,0 -2.98,-1.13q-1.03,-1.12 -1.03,-3.25q0,-1.33 0.5,-2.34q0.5,-1.01 1.44,-1.55t2.21,-0.54q1.39,0 2.66,0.6l-0.71,1.83q-0.48,-0.23 -0.95,-0.38t-1.02,-0.15zm7.13,-2.33l0,9.12l-2.29,0l0,-9.12l2.29,0zm8.93,5.79q0,1.62 -0.88,2.54q-0.88,0.91 -2.45,0.91q-1.51,0 -2.41,-0.93q-0.89,-0.94 -0.89,-2.52q0,-1.63 0.88,-2.53q0.87,-0.9 2.45,-0.9q0.98,0 1.73,0.42t1.16,1.19q0.41,0.78 0.41,1.82zm-4.3,0q0,0.85 0.22,1.3q0.23,0.45 0.77,0.45t0.76,-0.45q0.21,-0.45 0.21,-1.3q0,-0.85 -0.22,-1.29q-0.22,-0.43 -0.76,-0.43q-0.53,0 -0.76,0.43q-0.22,0.43 -0.22,1.29zm13.06,3.33l-1.73,0l-0.29,-0.83l-0.13,0q-0.29,0.46 -0.8,0.7q-0.51,0.25 -1.2,0.25q-1.1,0 -1.71,-0.64q-0.61,-0.63 -0.61,-1.79l0,-4.33l2.29,0l0,3.63q0,0.65 0.19,0.98q0.18,0.34 0.6,0.34q0.6,0 0.85,-0.47t0.25,-1.57l0,-2.91l2.29,0l0,6.64zm4.65,0.12q-0.71,0 -1.24,-0.41q-0.53,-0.4 -0.82,-1.19q-0.29,-0.78 -0.29,-1.83q0,-1.62 0.65,-2.53q0.65,-0.92 1.78,-0.92q0.56,0 0.98,0.23q0.42,0.22 0.76,0.75l0.05,0q-0.11,-0.78 -0.11,-1.56l0,-1.78l2.31,0l0,9.12l-1.73,0l-0.49,-0.84l-0.09,0q-0.59,0.96 -1.76,0.96zm0.93,-1.81q0.55,0 0.78,-0.35q0.22,-0.34 0.24,-1.07l0,-0.18q0,-0.88 -0.25,-1.25t-0.79,-0.37q-0.45,0 -0.7,0.42q-0.25,0.43 -0.25,1.21t0.25,1.18q0.25,0.41 0.72,0.41zm13.79,-5.1q-0.83,0 -1.29,0.68q-0.47,0.67 -0.47,1.86q0,2.47 1.88,2.47q0.57,0 1.11,-0.15q0.53,-0.16 1.07,-0.38l0,1.95q-1.07,0.48 -2.43,0.48q-1.94,0 -2.97,-1.13q-1.04,-1.12 -1.04,-3.25q0,-1.33 0.51,-2.34q0.5,-1.01 1.44,-1.55t2.21,-0.54q1.39,0 2.65,0.6l-0.71,1.83q-0.47,-0.23 -0.94,-0.38q-0.48,-0.15 -1.02,-0.15zm11.17,3.46q0,1.62 -0.87,2.54q-0.88,0.91 -2.45,0.91q-1.52,0 -2.41,-0.93q-0.89,-0.94 -0.89,-2.52q0,-1.63 0.87,-2.53q0.88,-0.9 2.46,-0.9q0.98,0 1.73,0.42t1.16,1.19q0.4,0.78 0.4,1.82zm-4.3,0q0,0.85 0.23,1.3q0.23,0.45 0.77,0.45q0.53,0 0.75,-0.45q0.22,-0.45 0.22,-1.3q0,-0.85 -0.22,-1.29q-0.22,-0.43 -0.76,-0.43q-0.53,0 -0.76,0.43q-0.23,0.43 -0.23,1.29zm13.09,3.33l-2.29,0l0,-3.62q0,-0.66 -0.19,-1q-0.19,-0.34 -0.61,-0.34q-0.58,0 -0.84,0.47q-0.26,0.46 -0.26,1.58l0,2.91l-2.29,0l0,-6.64l1.73,0l0.29,0.82l0.13,0q0.29,-0.47 0.81,-0.7q0.52,-0.24 1.19,-0.24q1.11,0 1.72,0.64q0.61,0.64 0.61,1.8l0,4.32zm7.69,-2.04q0,1.07 -0.73,1.61q-0.73,0.55 -2.09,0.55q-0.73,0 -1.28,-0.08q-0.54,-0.08 -1.11,-0.29l0,-1.84q0.53,0.24 1.17,0.39q0.63,0.15 1.13,0.15q0.74,0 0.74,-0.34q0,-0.17 -0.2,-0.31q-0.21,-0.14 -1.21,-0.54q-0.92,-0.37 -1.28,-0.85t-0.36,-1.21q0,-0.92 0.71,-1.44q0.72,-0.52 2.02,-0.52q0.66,0 1.24,0.15q0.57,0.14 1.19,0.42l-0.62,1.47q-0.45,-0.2 -0.96,-0.35q-0.51,-0.14 -0.84,-0.14q-0.56,0 -0.56,0.28q0,0.17 0.2,0.29q0.19,0.12 1.13,0.49q0.7,0.28 1.04,0.56q0.34,0.27 0.51,0.65q0.16,0.37 0.16,0.9zm8.61,-1.29q0,1.62 -0.88,2.54q-0.87,0.91 -2.45,0.91q-1.51,0 -2.41,-0.93q-0.89,-0.94 -0.89,-2.52q0,-1.63 0.88,-2.53q0.87,-0.9 2.45,-0.9q0.98,0 1.73,0.42t1.16,1.19q0.41,0.78 0.41,1.82zm-4.3,0q0,0.85 0.23,1.3q0.22,0.45 0.76,0.45t0.76,-0.45q0.22,-0.45 0.22,-1.3q0,-0.85 -0.23,-1.29q-0.22,-0.43 -0.76,-0.43q-0.53,0 -0.75,0.43q-0.23,0.43 -0.23,1.29zm8.9,-5.79l0,9.12l-2.3,0l0,-9.12l2.3,0zm5.79,9.24q-1.66,0 -2.58,-0.88q-0.91,-0.89 -0.91,-2.52q0,-1.68 0.85,-2.58q0.85,-0.9 2.42,-0.9q1.5,0 2.32,0.79q0.82,0.78 0.82,2.25l0,1.02l-4.1,0q0.02,0.56 0.41,0.87q0.38,0.32 1.04,0.32q0.61,0 1.11,-0.12q0.51,-0.11 1.1,-0.39l0,1.65q-0.54,0.28 -1.11,0.38q-0.57,0.11 -1.37,0.11zm-0.14,-5.32q-0.4,0 -0.67,0.26q-0.28,0.25 -0.32,0.8l1.97,0q-0.02,-0.48 -0.28,-0.77q-0.26,-0.29 -0.7,-0.29z"/>
</svg>